Patient4_TMGait_0pt8_01_right_12_GRF.mot
version=1
nRows=52
nColumns=19
inDegrees=no
endheader
time	F1x	F1y	F1z	M1x	M1y	M1z	F2x	F2y	F2z	M2x	M2y	M2z	EC1x	EC1y	EC1z	EC2x	EC2y	EC2z
13.22	11.3377	697.2779	68.8278	-240.5612	-73.1788	769.0061	11.5165	2.0471	-15.055	5.3788	8.3968	-2.6293	-0.0592	0.0182	-0.0073	-0.0462	0.0165	0.9585
13.2312	8.1591	697.7746	69.9262	-240.9769	-73.4712	764.0213	7.5164	2.6062	-10.2929	4.1218	5.8796	-0.075127	-0.0592	0.0182	-0.0073	-0.0462	0.0165	0.9585
13.2424	6.2065	698.7681	70.5725	-241.5046	-73.0265	759.1522	4.204	3.0758	-6.1988	3.0383	3.6949	2.025	-0.0592	0.0182	-0.0073	-0.0462	0.0165	0.9585
13.2536	5.6025	700.4361	70.7472	-242.2037	-71.8719	754.819	1.7012	3.4552	-3.0488	2.2101	2.0086	3.6123	-0.0592	0.0182	-0.0073	-0.0462	0.0165	0.9585
13.2649	6.2642	702.8462	70.4502	-243.1158	-70.0623	751.2135	-0.0046502	3.7338	-0.86003	1.64	0.83264	4.6785	-0.0592	0.0182	-0.0073	-0.0462	0.0165	0.9585
13.2761	8.0165	705.9287	69.789	-244.2319	-67.7415	748.3425	-1.0696	3.943	0.5026	1.2988	0.10133	5.3362	-0.0592	0.0182	-0.0073	-0.0462	0.0165	0.9585
13.2873	10.6751	709.4503	68.8395	-245.483	-65.0113	745.9858	-1.6408	4.0547	1.215	1.1229	-0.27381	5.626	-0.0592	0.0182	-0.0073	-0.0462	0.0165	0.9585
13.2985	14.0305	713.1181	67.7828	-246.7601	-62.0748	743.8649	-1.8961	4.0649	1.4735	1.0481	-0.38922	5.6345	-0.0592	0.0182	-0.0073	-0.0462	0.0165	0.9585
13.3097	17.9115	716.6421	66.7285	-247.9489	-59.0707	741.6922	-1.9502	3.8956	1.4338	0.99546	-0.32434	5.3173	-0.0592	0.0182	-0.0073	-0.0462	0.0165	0.9585
13.3209	22.1004	719.8207	65.8264	-248.9556	-56.1936	739.2984	-1.934	3.5003	1.2291	0.90098	-0.14356	4.6892	-0.0592	0.0182	-0.0073	-0.0462	0.0165	0.9585
13.3321	26.4319	722.5446	65.1757	-249.723	-53.5816	736.6036	-1.8768	2.7572	0.94312	0.69123	0.098682	3.6294	-0.0592	0.0182	-0.0073	-0.0462	0.0165	0.9585
13.3434	30.7219	724.8393	64.8817	-250.2411	-51.3866	733.6865	-1.8314	1.5798	0.64974	0.3094	0.34862	2.0577	-0.0592	0.0182	-0.0073	-0.0462	0.0165	0.9585
13.3546	34.8234	726.8107	65.0541	-250.5385	-49.7582	730.6857	-1.7506	-0.15479	0.39517	-0.30151	0.54678	-0.19853	-0.0592	0.0182	-0.0073	-0.0462	0.0165	0.9585
13.3658	38.6321	728.6653	65.732	-250.687	-48.7608	727.8383	-1.621	-2.4907	0.22626	-1.1651	0.63328	-3.1888	-0.0592	0.0182	-0.0073	-0.0462	0.0165	0.9585
13.377	42.09	730.593	66.9534	-250.7641	-48.4379	725.3191	-1.3377	-5.3899	0.17938	-2.2623	0.52745	-6.8924	-0.0592	0.0182	-0.0073	-0.0462	0.0165	0.9585
13.3882	45.1691	732.6968	68.6465	-250.8289	-48.7184	723.2103	-0.83573	-8.5924	0.28891	-3.4882	0.15148	-10.9743	-0.0592	0.0182	-0.0073	-0.0462	0.0165	0.9585
13.3994	47.8711	734.9023	70.723	-250.8841	-49.5038	721.406	0.032938	-11.5685	0.59472	-4.6239	-0.60365	-14.7706	-0.0592	0.0182	-0.0073	-0.0462	0.0165	0.9585
13.4106	50.208	736.8908	72.9952	-250.8495	-50.6008	719.5647	1.347	-13.3126	1.135	-5.273	-1.8279	-16.9809	-0.0592	0.0182	-0.0073	-0.0462	0.0165	0.9585
13.4219	52.2286	738.0979	75.2762	-250.5545	-51.8116	717.1239	3.213	-12.334	1.9568	-4.8441	-3.6142	-15.7136	-0.0592	0.0182	-0.0073	-0.0462	0.0165	0.9585
13.4331	54.0351	737.7751	77.3566	-249.7613	-52.9103	713.3545	5.6019	-6.5026	3.0635	-2.5094	-5.9567	-8.2511	-0.0592	0.0182	-0.0073	-0.0462	0.0165	0.9585
13.4443	55.7847	735.0988	79.0412	-248.2065	-53.6641	707.4437	8.3721	6.8212	4.412	2.7571	-8.7346	8.7689	-0.0592	0.0182	-0.0073	-0.0462	0.0165	0.9585
13.4555	57.6813	729.2013	80.1334	-245.6097	-53.8279	698.5333	11.1159	30.6118	5.8605	12.0957	-11.5947	39.1733	-0.0592	0.0182	-0.0073	-0.0462	0.0165	0.9585
13.4667	59.8412	719.1197	80.4162	-241.6596	-53.1666	685.6999	13.1143	67.6367	7.1368	26.5543	-13.8808	86.5072	-0.0592	0.0182	-0.0073	-0.0462	0.0165	0.9585
13.4779	62.2685	703.7237	79.6726	-235.9984	-51.4918	667.9207	13.1753	119.6007	7.7618	46.7464	-14.5032	152.9785	-0.0592	0.0182	-0.0073	-0.0462	0.0165	0.9585
13.4891	64.7316	681.7169	77.6856	-228.219	-48.691	644.0895	9.5714	185.9253	7.0664	72.3846	-11.949	237.8772	-0.0592	0.0182	-0.0073	-0.0462	0.0165	0.9585
13.5004	66.8009	651.7654	74.2843	-217.904	-44.7649	613.0848	0.57112	262.7684	4.2802	101.902	-4.5962	336.3415	-0.0592	0.0182	-0.0073	-0.0462	0.0165	0.9585
13.5116	67.8514	612.7436	69.3645	-204.6959	-39.8439	574.0288	-13.6719	342.9729	-1.461	132.4643	8.4955	439.1553	-0.0592	0.0182	-0.0073	-0.0462	0.0165	0.9585
13.5228	67.2618	564.12	63.0137	-188.4181	-34.234	526.5284	-30.8803	418.4728	-10.3653	160.9825	26.5725	535.6753	-0.0592	0.0182	-0.0073	-0.0462	0.0165	0.9585
13.534	64.4896	506.4165	55.5521	-169.2138	-28.4117	471.1525	-48.5683	485.2327	-21.3579	185.9636	47.2842	620.2898	-0.0592	0.0182	-0.0073	-0.0462	0.0165	0.9585
13.5452	59.2481	441.3721	47.4784	-147.6084	-22.9109	409.5291	-64.9234	544.2119	-32.9194	207.8299	68.043	693.9144	-0.0592	0.0182	-0.0073	-0.0462	0.0165	0.9585
13.5564	51.5368	371.8167	39.3696	-124.4841	-18.2343	344.255	-78.5501	597.8867	-43.741	227.6164	86.7043	759.5624	-0.0592	0.0182	-0.0073	-0.0462	0.0165	0.9585
13.5676	41.7542	301.3294	31.7394	-100.9922	-14.6938	278.5708	-88.5753	647.9495	-52.9844	246.037	101.8939	819.3701	-0.0592	0.0182	-0.0073	-0.0462	0.0165	0.9585
13.5789	30.7209	233.8389	24.9644	-78.4255	-12.339	216.0278	-94.788	694.4197	-60.2409	263.1382	113.0466	873.4387	-0.0592	0.0182	-0.0073	-0.0462	0.0165	0.9585
13.5901	19.6585	172.867	19.2454	-57.975	-10.9302	159.7372	-97.43	736.0408	-65.7589	278.4328	120.5543	920.3087	-0.0592	0.0182	-0.0073	-0.0462	0.0165	0.9585
13.6013	9.854	120.8388	14.5694	-40.4842	-10.0194	111.8016	-97.0657	771.3299	-69.9406	291.3193	125.148	958.3101	-0.0592	0.0182	-0.0073	-0.0462	0.0165	0.9585
13.6125	2.2195	78.788	10.7758	-26.3377	-9.1557	73.0642	-94.3812	799.0733	-73.1811	301.2995	127.6066	986.1933	-0.0592	0.0182	-0.0073	-0.0462	0.0165	0.9585
13.6237	-2.905	46.6738	7.6339	-15.547	-8.0188	43.4572	-90.0501	818.6288	-75.852	308.0966	128.6529	1003.4498	-0.0592	0.0182	-0.0073	-0.0462	0.0165	0.9585
13.6349	-5.5962	23.6566	5.0345	-7.8376	-6.5488	22.203	-84.6862	829.9458	-78.0585	311.6801	128.6772	1010.315	-0.0592	0.0182	-0.0073	-0.0462	0.0165	0.9585
13.6461	-6.3025	8.4091	2.9373	-2.7582	-4.8669	8.104	-78.7863	833.422	-79.795	312.2078	127.8705	1007.5518	-0.0592	0.0182	-0.0073	-0.0462	0.0165	0.9585
13.6574	-5.7767	-0.58331	1.3929	0.21614	-3.2746	-0.2263	-72.7673	829.8768	-80.8914	310.0111	126.2064	996.3834	-0.0592	0.0182	-0.0073	-0.0462	0.0165	0.9585
13.6686	-4.6693	-4.9528	0.38143	1.6457	-1.9718	-4.2701	-66.9156	820.4756	-81.1838	305.5594	123.6145	978.4195	-0.0592	0.0182	-0.0073	-0.0462	0.0165	0.9585
13.6798	-3.3959	-6.226	-0.20667	2.0478	-1.0019	-5.4484	-61.3654	806.662	-80.5751	299.4292	120.0571	955.5371	-0.0592	0.0182	-0.0073	-0.0462	0.0165	0.9585
13.691	-2.2182	-5.6532	-0.48412	1.8446	-0.34788	-4.8961	-56.1531	789.9925	-79.0689	292.238	115.5838	929.6605	-0.0592	0.0182	-0.0073	-0.0462	0.0165	0.9585
13.7022	-1.245	-4.153	-0.56242	1.3435	0.055439	-3.4847	-51.2444	771.8954	-76.8484	284.5474	110.4183	902.4963	-0.0592	0.0182	-0.0073	-0.0462	0.0165	0.9585
13.7134	-0.53363	-2.3684	-0.52678	0.75589	0.26859	-1.7949	-46.6291	753.5246	-74.2042	276.8073	104.9097	875.3823	-0.0592	0.0182	-0.0073	-0.0462	0.0165	0.9585
13.7246	-0.037202	-0.67733	-0.4338	0.20442	0.35495	-0.18244	-42.3233	735.8182	-71.4664	269.3831	99.4486	849.3457	-0.0592	0.0182	-0.0073	-0.0462	0.0165	0.9585
13.7359	0.25566	0.72357	-0.32963	-0.24945	0.36364	1.1676	-38.3071	719.6392	-68.8607	262.6152	94.2948	825.3007	-0.0592	0.0182	-0.0073	-0.0462	0.0165	0.9585
13.7471	0.42198	1.7592	-0.23143	-0.58664	0.3306	2.1728	-34.526	705.7898	-66.4878	256.8285	89.5499	804.0597	-0.0592	0.0182	-0.0073	-0.0462	0.0165	0.9585
13.7583	0.48849	2.4514	-0.153	-0.81729	0.27801	2.8603	-30.9293	694.9812	-64.3364	252.3138	85.1884	786.314	-0.0592	0.0182	-0.0073	-0.0462	0.0165	0.9585
13.7695	0.49534	2.8514	-0.09137	-0.96104	0.21534	3.258	-27.4204	687.7191	-62.3253	249.2858	81.0927	772.5179	-0.0592	0.0182	-0.0073	-0.0462	0.0165	0.9585
13.7807	0.46833	3.0636	-0.04668	-1.0509	0.15168	3.4726	-23.9041	684.3044	-60.3905	247.8715	77.1559	762.8821	-0.0592	0.0182	-0.0073	-0.0462	0.0165	0.9585
13.7919	0.42929	3.1382	-0.012534	-1.1051	0.092443	3.5473	-20.2918	684.7469	-58.5236	248.0788	73.3275	757.299	-0.0592	0.0182	-0.0073	-0.0462	0.0165	0.9585
